<?xml version="1.0" standalone="no"?>
<!DOCTYPE svg PUBLIC "-//W3C//DTD SVG 20010904//EN"
 "http://www.w3.org/TR/2001/REC-SVG-20010904/DTD/svg10.dtd">
<svg version="1.0" xmlns="http://www.w3.org/2000/svg"
 width="1000.000000pt" height="1000.000000pt" viewBox="0 0 1000.000000 1000.000000"
 preserveAspectRatio="xMidYMid meet">
<metadata>
Created by potrace 1.11, written by Peter Selinger 2001-2013
</metadata>
<g transform="translate(0.000000,1000.000000) scale(0.100000,-0.100000)"
fill="#000000" stroke="none">
<path d="M4767 8739 c-763 -46 -1501 -330 -2105 -811 -163 -130 -460 -427
-590 -590 -108 -136 -256 -355 -341 -505 -340 -602 -512 -1336 -472 -2023 6
-105 16 -225 21 -268 92 -702 360 -1337 792 -1880 130 -163 427 -460 590 -590
136 -108 355 -256 505 -341 602 -340 1337 -512 2023 -472 288 17 481 46 739
112 640 163 1206 482 1685 949 616 601 993 1358 1106 2222 5 43 15 163 21 268
21 366 -17 746 -112 1119 -130 513 -369 992 -701 1409 -130 163 -427 460 -590
590 -417 332 -896 571 -1409 701 -250 64 -451 95 -719 111 -182 11 -253 11
-443 -1z m1173 -1684 c785 -177 1222 -1000 925 -1741 -147 -365 -409 -605
-1535 -1403 -274 -194 -290 -202 -335 -156 -27 26 -31 54 -15 85 6 10 88 74
183 141 428 303 798 575 957 703 229 184 406 354 480 462 375 543 213 1287
-355 1626 -186 111 -419 167 -642 153 -111 -7 -112 -7 -137 19 -43 43 -27 105
34 129 31 13 364 -1 440 -18z m-685 -90 c30 -30 32 -64 4 -99 -42 -53 -129
-23 -129 46 0 69 77 102 125 53z m-192 -107 c12 -14 17 -34 15 -57 -3 -31 -12
-42 -68 -84 -36 -26 -98 -80 -138 -120 -87 -85 -292 -321 -292 -335 0 -9 93
-82 105 -82 2 0 49 53 103 118 237 280 396 395 637 458 86 23 120 27 245 27
125 0 159 -4 245 -27 178 -47 306 -119 443 -251 134 -127 219 -272 274 -461
20 -68 23 -102 23 -249 0 -186 -12 -249 -76 -398 -118 -278 -415 -536 -1514
-1312 -170 -120 -382 -271 -470 -335 -252 -184 -373 -244 -550 -275 -109 -19
-153 -19 -249 0 -217 41 -391 206 -441 417 -21 90 -19 248 4 339 44 169 71
219 271 495 74 103 138 193 143 200 5 9 -10 26 -49 55 -44 33 -58 39 -65 28
-4 -8 -74 -104 -154 -214 -211 -289 -282 -443 -304 -657 -32 -324 116 -609
385 -740 105 -50 167 -67 284 -74 202 -13 438 58 641 192 75 49 117 56 149 24
24 -24 26 -67 5 -97 -23 -32 -169 -122 -278 -170 -148 -65 -268 -94 -423 -100
-268 -11 -473 61 -651 230 -166 158 -257 356 -270 587 -15 280 65 517 273 806
59 82 134 186 167 232 l60 83 -21 22 c-44 47 -54 117 -24 178 19 40 680 967
721 1012 14 16 38 35 53 43 35 18 105 18 142 -1 15 -8 29 -15 31 -15 1 0 42
48 91 108 121 146 315 339 394 391 70 46 100 48 133 9z m-143 -3128 c68 -68
-37 -174 -107 -108 -49 45 -14 128 54 128 20 0 41 -8 53 -20z"/>
<path d="M5500 6616 c-118 -26 -238 -79 -328 -147 -63 -48 -195 -183 -290
-299 l-70 -84 18 -26 c42 -59 43 -143 3 -199 -11 -14 -176 -245 -367 -513
-309 -433 -353 -489 -390 -508 -50 -24 -84 -25 -132 -5 l-34 14 -53 -72 c-28
-39 -96 -132 -150 -207 -101 -138 -176 -278 -196 -362 -45 -191 -9 -359 101
-469 83 -83 174 -119 304 -119 166 0 323 62 520 206 65 48 281 202 479 342
799 566 1130 820 1338 1026 115 115 187 237 228 391 31 113 31 307 0 420 -78
289 -286 503 -576 595 -90 28 -306 37 -405 16z"/>
<path d="M4328 6212 c-26 -29 -299 -414 -296 -416 2 -1 26 -18 53 -38 28 -19
55 -38 61 -41 7 -4 29 19 53 53 61 87 100 101 146 55 37 -36 32 -71 -20 -143
l-45 -62 62 -45 c34 -25 65 -42 69 -37 14 15 291 407 296 418 3 9 -274 219
-353 267 -6 3 -18 -1 -26 -11z"/>
<path d="M3788 5461 c-82 -115 -148 -213 -148 -219 0 -15 349 -264 365 -260
12 3 291 386 302 414 3 9 -331 260 -361 270 -6 2 -77 -91 -158 -205z"/>
</g>
</svg>
